<svg width="130" height="31" viewBox="0 0 130 31" fill="none" xmlns="http://www.w3.org/2000/svg">
<path d="M43.582 24.2512C48.631 24.2512 51.4946 21.5886 51.4946 17.0168V7.1701H48.7817V16.841C48.7817 20.2321 47.2745 21.6388 43.582 21.6388C39.8895 21.6388 38.3823 20.2321 38.3823 16.841V7.1701H35.6945V17.0168C35.6945 21.5886 38.5581 24.2512 43.582 24.2512ZM56.6114 24V17.8207C56.6114 15.1078 57.8423 13.7011 60.5803 13.7011C63.1676 13.7011 64.2226 14.8817 64.2226 17.2178V24H66.9354V16.4893C66.9354 13.6006 65.2273 11.2645 61.7609 11.2645C58.5959 11.2645 56.938 13.2741 56.5612 15.3841H56.3854V11.5157H53.8986V24H56.6114ZM77.5417 24V21.5634H75.2809C73.7235 21.5634 73.0202 21.1615 73.0202 19.6292V13.7765H77.5417V11.5157H73.0202V8.77773H70.3324V11.5157H68.2224V13.7765H70.3324V19.78C70.3324 22.8194 71.9903 24 74.6781 24H77.5417ZM81.9515 10.0588V7.1701H79.2386V10.0588H81.9515ZM81.9515 24V11.5157H79.2386V24H81.9515ZM92.6525 24V21.5634H90.3917C88.8343 21.5634 88.131 21.1615 88.131 19.6292V13.7765H92.6525V11.5157H88.131V8.77773H85.4432V11.5157H83.3332V13.7765H85.4432V19.78C85.4432 22.8194 87.1011 24 89.7889 24H92.6525ZM97.0623 24V7.1701H94.3494V24H97.0623ZM105.854 24.2512C109.572 24.2512 112.184 22.4175 112.184 19.7548V19.5288H109.471V19.7297C109.471 21.2118 108.391 22.0658 105.779 22.0658C102.89 22.0658 101.71 20.7847 101.609 18.3733H112.209C112.285 17.9965 112.31 17.6448 112.31 17.1927C112.31 13.3997 109.672 11.2645 105.804 11.2645C101.735 11.2645 99.072 13.8769 99.072 17.7704C99.072 21.9402 101.76 24.2512 105.854 24.2512ZM105.754 13.3997C108.416 13.3997 109.748 14.5049 109.748 16.8159V16.8661H101.634C101.785 14.6305 102.991 13.3997 105.754 13.3997ZM119.843 24.2512C122.656 24.2512 124.49 22.8948 125.017 20.4079H125.193V24H127.68V7.1701H124.967V14.9068H124.816C124.314 12.7968 122.631 11.2645 119.667 11.2645C115.874 11.2645 113.714 13.8769 113.714 17.7704C113.714 21.6137 115.899 24.2512 119.843 24.2512ZM116.452 17.7704C116.452 14.7561 118.009 13.7262 120.622 13.7262C123.41 13.7262 124.967 15.0324 124.967 17.6951V17.896C124.967 20.5084 123.334 21.7644 120.672 21.7644C117.984 21.7644 116.452 20.7596 116.452 17.7704Z" fill="black"/>
<path d="M10.6495 15.1659L0 10.6866V20.665C0.00561271 21.0811 0.130124 21.4869 0.358845 21.8346C0.587566 22.1822 0.910953 22.4572 1.29085 22.6271L10.5721 27.0031H10.6495V15.1659ZM11.6177 13.449L22.6028 8.84063C22.4179 8.63522 22.1942 8.4685 21.9445 8.3501L12.6503 3.99987C12.3275 3.84708 11.9748 3.76782 11.6177 3.76782C11.2605 3.76782 10.9078 3.84708 10.585 3.99987L1.29085 8.3501C1.04115 8.4685 0.817395 8.63522 0.632517 8.84063L11.6177 13.449ZM12.5858 15.1659V27.0031H12.6503L21.9445 22.6271C22.3224 22.4582 22.6445 22.1852 22.873 21.84C23.1016 21.4949 23.2273 21.0918 23.2353 20.6779V10.6866L12.5858 15.1659Z" fill="black"/>
</svg>
